<?xml version="1.0" standalone="no"?>
<!DOCTYPE svg PUBLIC "-//W3C//DTD SVG 20010904//EN"
 "http://www.w3.org/TR/2001/REC-SVG-20010904/DTD/svg10.dtd">
<svg version="1.0" xmlns="http://www.w3.org/2000/svg"
 width="512.000000pt" height="512.000000pt" viewBox="0 0 512.000000 512.000000"
 preserveAspectRatio="xMidYMid meet">

<g transform="translate(0.000000,512.000000) scale(0.100000,-0.100000)"
fill="#000000" stroke="none">
<path d="M2385 4794 c-309 -33 -565 -104 -808 -225 -240 -120 -411 -243 -597
-429 -345 -345 -557 -764 -637 -1255 -24 -153 -24 -497 0 -650 80 -491 293
-911 637 -1255 345 -345 764 -557 1255 -637 154 -24 497 -24 650 0 345 56 628
166 910 352 461 305 795 774 933 1310 51 198 66 325 66 555 0 230 -15 357 -66
555 -224 869 -950 1525 -1838 1660 -101 15 -423 27 -505 19z m470 -171 c823
-114 1516 -734 1724 -1546 86 -335 86 -699 0 -1034 -96 -373 -296 -715 -577
-984 -703 -676 -1773 -776 -2582 -242 -1089 719 -1267 2234 -372 3175 471 495
1131 725 1807 631z"/>
<path d="M2519 4467 c-36 -27 -39 -52 -39 -307 0 -315 2 -320 112 -320 85 0
257 -30 358 -62 199 -64 375 -171 526 -322 350 -351 460 -860 288 -1336 -132
-369 -442 -664 -824 -784 -138 -44 -256 -59 -420 -53 -323 12 -578 116 -830
338 l-91 81 -57 -53 c-31 -29 -126 -120 -209 -201 -193 -188 -192 -180 -64
-300 266 -250 620 -422 996 -484 151 -25 439 -25 589 0 319 52 594 166 848
351 104 76 295 265 377 373 340 451 472 1014 361 1547 -155 750 -728 1333
-1471 1499 -187 41 -417 58 -450 33z m390 -177 c1079 -220 1700 -1376 1284
-2394 -212 -522 -653 -908 -1194 -1046 -219 -56 -499 -68 -725 -30 -298 50
-606 190 -832 379 -37 32 -67 62 -67 67 0 6 50 59 112 118 l112 107 84 -64
c264 -202 552 -300 882 -300 230 0 417 43 620 142 415 203 696 568 787 1023
29 146 31 396 5 533 -38 196 -125 399 -239 559 -126 178 -336 359 -527 455
-141 71 -343 130 -503 146 l-68 7 0 166 0 165 83 -6 c45 -3 129 -15 186 -27z"/>
<path d="M2335 3650 c-232 -50 -424 -156 -582 -323 -129 -136 -221 -300 -270
-484 -25 -89 -27 -114 -27 -283 0 -169 2 -194 27 -283 30 -112 95 -256 157
-347 56 -82 167 -198 249 -261 91 -69 267 -154 386 -186 92 -25 115 -27 285
-27 169 0 194 2 283 27 112 30 256 95 347 157 82 56 198 167 261 249 69 91
154 267 186 386 25 92 27 115 27 285 0 170 -2 193 -27 285 -32 119 -117 295
-186 386 -63 82 -179 193 -261 249 -92 62 -236 127 -347 157 -137 36 -375 42
-508 13z m457 -159 c178 -47 311 -122 441 -249 259 -256 350 -626 240 -977
-90 -284 -315 -515 -598 -612 -692 -236 -1385 353 -1260 1070 61 352 312 640
653 752 152 49 372 56 524 16z"/>
<path d="M2177 3106 c-116 -31 -192 -129 -185 -236 18 -257 356 -329 459 -98
85 194 -74 388 -274 334z m113 -176 c43 -43 8 -130 -51 -130 -39 0 -79 40 -79
79 0 59 87 94 130 51z"/>
<path d="M3005 3110 c-11 -4 -240 -229 -509 -499 -463 -463 -490 -492 -490
-526 0 -47 32 -79 79 -79 34 0 63 27 532 497 470 469 497 498 497 532 0 57
-59 97 -109 75z"/>
<path d="M2817 2466 c-116 -31 -192 -129 -185 -236 18 -257 356 -329 459 -98
85 194 -74 388 -274 334z m113 -176 c43 -43 8 -130 -51 -130 -39 0 -79 40 -79
79 0 59 87 94 130 51z"/>
</g>
</svg>
