<?xml version="1.0" standalone="no"?>
<!DOCTYPE svg PUBLIC "-//W3C//DTD SVG 20010904//EN"
 "http://www.w3.org/TR/2001/REC-SVG-20010904/DTD/svg10.dtd">
<svg version="1.0" xmlns="http://www.w3.org/2000/svg"
 width="512.000000pt" height="512.000000pt" viewBox="0 0 512.000000 512.000000"
 preserveAspectRatio="xMidYMid meet">

<g transform="translate(0.000000,512.000000) scale(0.100000,-0.100000)"
fill="#000000" stroke="none">
<path d="M2005 5109 c-421 -21 -820 -171 -1180 -442 -109 -82 -305 -281 -393
-399 -739 -988 -501 -2379 525 -3063 250 -167 553 -283 868 -332 151 -24 469
-24 620 0 297 46 595 159 843 320 l93 60 82 -80 c85 -83 135 -110 186 -100 24
5 40 -6 134 -101 94 -95 105 -110 100 -135 -13 -67 11 -97 369 -454 317 -315
347 -342 401 -362 171 -63 350 7 429 167 29 59 33 76 33 147 -1 142 -1 142
-384 529 -188 189 -350 344 -368 352 -18 8 -52 14 -75 14 -41 0 -47 5 -145
102 -99 98 -103 104 -103 146 0 64 -20 99 -103 181 l-75 73 60 92 c166 256
283 573 323 879 19 151 19 413 0 562 -126 962 -903 1725 -1865 1834 -131 15
-223 17 -375 10z m355 -184 c285 -34 553 -125 793 -271 501 -305 840 -822 921
-1403 32 -229 17 -518 -39 -741 -226 -901 -1057 -1527 -1975 -1486 -969 42
-1750 763 -1870 1726 -23 186 -11 440 30 639 163 785 820 1406 1613 1525 194
29 346 33 527 11z m1390 -3560 l-120 -120 -55 56 -56 55 118 120 118 121 58
-56 57 -56 -120 -120z m275 -155 l89 -90 -59 -60 -59 -60 -88 87 c-49 48 -88
92 -88 97 0 11 100 116 110 116 3 0 46 -40 95 -90z m270 -390 l-120 -120 -60
60 -60 60 120 120 120 120 60 -60 60 -60 -120 -120z m645 -437 c21 -80 -18
-159 -94 -194 -100 -45 -138 -24 -366 205 l-185 186 120 120 120 120 197 -197
c166 -168 198 -205 208 -240z"/>
<path d="M1955 4759 c-457 -48 -892 -277 -1181 -621 -414 -494 -535 -1150
-323 -1755 98 -279 281 -550 502 -743 375 -328 878 -491 1355 -439 240 26 411
76 627 184 539 269 900 781 975 1380 19 150 8 432 -24 576 -66 311 -208 592
-414 825 -376 426 -954 652 -1517 593z m336 -170 c564 -57 1058 -401 1299
-903 62 -131 92 -215 126 -361 27 -113 28 -133 28 -345 0 -212 -1 -232 -28
-345 -66 -284 -184 -515 -373 -730 -328 -376 -859 -586 -1353 -536 -215 22
-374 67 -565 161 -452 221 -768 628 -877 1134 -19 86 -22 133 -22 316 0 240
13 326 78 517 242 712 947 1168 1687 1092z"/>
<path d="M1675 4326 c-16 -7 -40 -24 -52 -37 -28 -31 -77 -156 -109 -277 -13
-53 -28 -100 -32 -103 -4 -4 -25 -12 -47 -19 -62 -20 -174 -78 -241 -126 -190
-134 -216 -335 -65 -489 51 -52 104 -91 169 -124 56 -28 55 -57 -3 -77 -71
-24 -95 -82 -95 -231 0 -155 36 -248 137 -354 53 -56 53 -56 53 -121 0 -136
61 -258 190 -383 40 -38 104 -113 143 -164 79 -108 115 -143 172 -174 36 -20
58 -22 216 -25 103 -2 192 1 215 7 73 20 127 64 204 167 40 55 117 144 170
199 131 135 180 236 180 373 l0 65 59 61 c97 102 131 191 131 349 0 151 -23
207 -95 231 -65 22 -58 44 31 96 225 132 295 320 181 487 -61 88 -202 182
-348 232 l-54 18 -27 101 c-44 161 -84 256 -123 291 -62 54 -148 54 -225 -1
-140 -99 -196 -123 -281 -122 -66 1 -162 44 -267 119 -54 38 -70 45 -110 45
-26 -1 -60 -7 -77 -14z m128 -195 c74 -56 168 -100 250 -118 127 -26 262 10
399 106 l72 51 19 -47 c53 -135 101 -366 95 -458 l-3 -50 -77 -33 c-43 -18
-122 -45 -175 -59 -85 -23 -117 -26 -248 -26 -169 0 -272 21 -421 85 l-79 34
-3 47 c-5 72 34 277 75 398 20 60 38 109 40 109 2 0 27 -18 56 -39z m-345
-494 c-4 -108 5 -120 123 -179 360 -180 744 -181 1105 -2 126 62 129 66 127
175 l-2 88 45 -19 c125 -54 214 -141 214 -210 0 -125 -227 -247 -580 -312 -97
-18 -153 -21 -355 -21 -202 0 -258 3 -355 21 -357 66 -580 188 -580 319 0 38
40 95 93 131 35 25 155 91 165 92 2 0 2 -37 0 -83z m217 -612 c97 -19 301 -45
363 -45 8 0 12 -19 12 -63 l0 -64 -62 -19 c-45 -14 -93 -19 -168 -19 -95 0
-111 3 -162 28 -33 16 -76 49 -103 79 -39 44 -45 56 -45 95 0 42 2 45 23 39
12 -3 76 -17 142 -31z m1085 -9 c0 -38 -6 -51 -45 -94 -27 -30 -70 -63 -103
-79 -51 -25 -67 -28 -162 -28 -75 0 -123 5 -167 19 l-63 19 0 63 0 62 78 7
c120 10 280 33 362 54 105 26 100 27 100 -23z m-1299 -243 c55 -52 144 -100
220 -118 105 -26 257 -17 369 21 l85 29 85 -29 c66 -22 109 -30 195 -33 185
-8 291 31 414 154 l74 73 -5 -72 c-7 -109 -42 -164 -154 -244 -29 -21 -29 -22
-35 -145 -7 -155 -18 -179 -144 -309 -51 -52 -122 -135 -159 -185 -95 -127
-91 -125 -273 -125 -150 0 -152 0 -184 27 -18 15 -57 61 -87 103 -30 41 -100
121 -154 177 -127 131 -140 160 -147 316 -6 117 -7 119 -35 140 -113 84 -156
159 -156 270 l0 60 29 -39 c16 -21 44 -53 62 -71z"/>
<path d="M2339 2275 c-47 -34 -110 -65 -135 -65 -30 0 -64 -41 -64 -77 0 -45
9 -62 42 -79 24 -12 39 -13 79 -5 89 19 190 86 210 138 13 34 -13 90 -46 103
-38 15 -48 13 -86 -15z"/>
</g>
</svg>
